<svg width="1988" height="994" viewBox="0 0 1988 994" fill="none" xmlns="http://www.w3.org/2000/svg">
<path d="M266.275 920.407C266.275 928.118 230.467 932.215 229.047 939.505C227.563 947.022 259.049 964.475 256.178 971.378C253.274 978.411 218.627 968.475 214.466 974.701C210.239 980.992 232.628 1009.22 227.305 1014.54C221.982 1019.87 193.755 997.477 187.464 1001.7C181.205 1005.9 191.141 1040.51 184.141 1043.42C177.237 1046.29 159.785 1014.8 152.268 1016.28C144.977 1017.74 140.88 1053.51 133.17 1053.51C125.46 1053.51 121.363 1017.7 114.072 1016.28C106.555 1014.8 89.1026 1046.29 82.1989 1043.42C75.1662 1040.51 85.1023 1005.86 78.8761 1001.7C72.5854 997.477 44.3577 1019.87 39.0348 1014.54C33.7119 1009.22 56.1004 980.992 51.8743 974.701C47.6805 968.443 13.0654 978.379 10.1619 971.378C7.2908 964.475 38.7767 947.022 37.2927 939.505C35.8088 932.215 0 928.118 0 920.407C0 912.697 35.8088 908.6 37.2282 901.309C38.7122 893.793 7.22628 876.34 10.0974 869.436C13.0008 862.404 47.6483 872.34 51.8098 866.114C56.0359 859.823 33.6473 831.595 38.9703 826.272C44.2932 820.949 72.5208 843.338 78.8116 839.112C85.07 834.918 75.1339 800.303 82.1344 797.399C89.038 794.528 106.491 826.014 114.007 824.53C121.298 823.078 125.395 787.302 133.105 787.302C140.816 787.302 144.913 823.111 152.203 824.53C159.72 826.014 177.173 794.528 184.076 797.399C191.109 800.303 181.173 834.95 187.399 839.112C193.69 843.338 221.918 820.949 227.241 826.272C232.563 831.595 210.175 859.823 214.401 866.114C218.595 872.372 253.21 862.436 256.113 869.436C258.985 876.34 227.499 893.793 228.983 901.309C230.467 908.6 266.275 912.697 266.275 920.407Z" fill="#C7D2FE"/>
<path d="M1775.12 4.28336L1728.69 27.2849L1757.4 70.3844L1705.69 67.0616L1709.05 118.775L1665.91 90.0631L1642.91 136.453L1619.91 90.0631L1576.81 118.775L1580.13 67.0616L1528.42 70.3844L1557.13 27.2849L1510.74 4.28336L1557.13 -18.7181L1528.42 -61.85L1580.13 -58.5272L1576.81 -110.208L1619.91 -81.5287L1642.91 -127.919L1665.91 -81.5287L1709.05 -110.208L1705.69 -58.5272L1757.4 -61.85L1728.69 -18.7181L1775.12 4.28336Z" fill="#C7D2FE"/>
<path d="M1323.54 217.91C1295.99 233.105 1285.99 267.752 1301.18 295.302L1400.93 240.266C1385.74 212.716 1351.09 202.716 1323.54 217.91Z" fill="#C7D2FE"/>
<path d="M1215.98 229.747L1158.72 239.425L1199.33 280.912L1147.33 255.039L1155.85 312.495L1128.97 261.007L1102.1 312.495L1110.62 255.039L1058.61 280.912L1099.26 239.425L1042 229.747L1099.26 220.102L1058.61 178.615L1110.62 204.455L1102.1 147L1128.97 198.519L1155.85 147L1147.33 204.455L1199.33 178.615L1158.72 220.102L1215.98 229.747Z" fill="#C7D2FE" stroke="#231F20" stroke-width="1.29041" stroke-miterlimit="10" stroke-linecap="round"/>
<path d="M855 332.5L765.46 353.433L810.463 433.862L727.209 391.78L725.772 484.956L666.438 412.713L633 500L599.562 412.713L540.228 484.956L538.791 391.78L455.536 433.862L500.54 353.433L411 332.5L500.54 311.567L455.536 231.138L538.791 273.22L540.228 180.044L599.562 252.287L633 165L666.438 252.287L725.772 180.044L727.209 273.22L810.463 231.138L765.46 311.567L855 332.5Z" fill="#C7D2FE"/>
<path d="M620.976 975.701C706.995 975.701 776.728 930.768 776.728 875.34C776.728 819.912 706.995 774.979 620.976 774.979C534.956 774.979 465.224 819.912 465.224 875.34C465.224 930.768 534.956 975.701 620.976 975.701Z" fill="#C7D2FE" stroke="#231F20" stroke-width="2.25821" stroke-miterlimit="10"/>
<path d="M665.251 965.462C742.462 927.536 785.243 856.459 760.805 806.706C736.367 756.954 653.964 747.367 576.753 785.293C499.542 823.219 456.761 894.296 481.199 944.049C505.637 993.801 588.04 1003.39 665.251 965.462Z" fill="#C7D2FE" stroke="#231F20" stroke-width="2.25821" stroke-miterlimit="10"/>
<path d="M1450.29 96.6119C1450.58 101.032 1450.51 105.483 1450.09 109.871C1450.03 110.419 1450 110.968 1449.9 111.484C1449.87 111.742 1449.84 112 1449.8 112.258C1449.77 112.645 1449.9 111.645 1449.8 112.226C1449.77 112.387 1449.77 112.581 1449.74 112.742C1449.58 113.839 1449.38 114.936 1449.19 116.033C1448.77 118.226 1448.22 120.42 1447.58 122.549C1447.26 123.549 1446.93 124.549 1446.58 125.549C1446.38 126.033 1446.22 126.517 1446 127.001C1445.96 127.098 1445.84 127.259 1445.84 127.388C1445.84 127.066 1446.03 126.969 1445.9 127.195C1445.77 127.453 1445.67 127.711 1445.55 127.969C1444.77 129.679 1443.84 131.324 1442.8 132.872C1442.58 133.227 1442.32 133.582 1442.06 133.937C1441.93 134.13 1441.77 134.324 1441.64 134.518C1441.58 134.582 1441.51 134.679 1441.48 134.743C1441.8 134.163 1441.61 134.582 1441.51 134.711C1440.93 135.453 1440.29 136.195 1439.64 136.905C1439 137.582 1438.35 138.228 1437.64 138.873C1437.32 139.163 1436.96 139.453 1436.61 139.744C1436.45 139.873 1436.29 140.002 1436.13 140.131C1435.87 140.324 1436.61 139.744 1436.22 140.066C1436.09 140.163 1436 140.228 1435.87 140.324C1435.03 140.937 1434.16 141.518 1433.25 142.034C1432.35 142.55 1431.42 142.938 1430.48 143.421C1430.51 143.389 1431.03 143.196 1430.67 143.325C1430.54 143.389 1430.42 143.421 1430.29 143.486C1430.03 143.583 1429.77 143.679 1429.48 143.776C1429 143.938 1428.51 144.099 1428 144.228C1427 144.518 1425.96 144.712 1424.93 144.841C1424.38 144.905 1423.74 145.486 1423.48 145.938C1423.22 146.422 1423.12 146.938 1423.19 147.486C1423.35 148.648 1424.35 149.583 1425.58 149.583C1427.93 149.551 1430.29 149.551 1432.64 149.712C1433.19 149.744 1433.71 149.809 1434.25 149.873C1434.29 149.873 1434.87 149.97 1434.48 149.906C1434.06 149.841 1434.64 149.938 1434.71 149.938C1435 149.97 1435.29 150.035 1435.58 150.099C1436.74 150.325 1437.87 150.615 1438.96 150.97C1439.16 151.035 1439.38 151.132 1439.58 151.196C1439.67 151.228 1439.8 151.293 1439.9 151.325C1440.09 151.39 1440.29 151.583 1439.77 151.261C1440.16 151.519 1440.64 151.648 1441.06 151.874C1441.87 152.293 1442.64 152.745 1443.35 153.261C1443.55 153.39 1443.74 153.519 1443.93 153.68C1444 153.745 1444.09 153.809 1444.16 153.841C1444.48 154.067 1444.03 153.745 1444 153.712C1444.32 154.035 1444.74 154.325 1445.09 154.616C1445.8 155.261 1446.48 155.906 1447.13 156.616C1447.42 156.938 1447.71 157.261 1447.96 157.584C1448.09 157.745 1448.22 157.906 1448.38 158.1C1448.58 158.358 1448.03 157.616 1448.32 158.003C1448.42 158.132 1448.48 158.229 1448.58 158.358C1449.13 159.1 1449.61 159.874 1450.09 160.648C1450.58 161.455 1451.03 162.294 1451.45 163.132C1451.64 163.552 1451.84 163.971 1452.03 164.391C1452.06 164.487 1452.09 164.584 1452.16 164.649C1451.9 164.036 1452.06 164.391 1452.13 164.552C1452.22 164.81 1452.32 165.036 1452.42 165.294C1453.16 167.229 1453.71 169.197 1454.13 171.197C1454.26 171.778 1454.35 172.327 1454.45 172.907C1454.48 173.133 1454.51 173.391 1454.58 173.617C1454.61 173.81 1454.64 173.972 1454.64 174.165C1454.64 174.069 1454.61 173.972 1454.61 173.875C1454.61 174.004 1454.64 174.101 1454.64 174.23C1454.77 175.391 1454.9 176.52 1454.97 177.682C1455.32 183.005 1455 188.36 1454.64 193.651C1454.58 194.844 1455.61 195.876 1456.74 196.038C1457.93 196.199 1459.03 195.457 1459.38 194.296C1461.93 186.198 1462.26 177.649 1464.16 169.423C1464.58 167.584 1465.06 165.745 1465.71 163.939C1465.84 163.552 1466 163.165 1466.13 162.81C1466.19 162.616 1466.32 162.423 1466.39 162.197C1466.39 162.229 1466.16 162.745 1466.32 162.39C1466.35 162.294 1466.42 162.165 1466.45 162.068C1466.8 161.294 1467.16 160.552 1467.55 159.81C1468.32 158.326 1469.22 156.906 1470.22 155.584C1470.29 155.519 1470.35 155.422 1470.39 155.358C1470.06 155.842 1470.16 155.648 1470.26 155.519C1470.39 155.358 1470.51 155.196 1470.64 155.035C1470.9 154.712 1471.19 154.39 1471.48 154.067C1472.03 153.454 1472.61 152.874 1473.19 152.358C1473.55 152.035 1473.87 151.745 1474.26 151.454C1474.32 151.39 1474.39 151.357 1474.48 151.293C1473.9 151.745 1474.32 151.422 1474.42 151.325C1474.61 151.196 1474.77 151.067 1474.97 150.938C1475.68 150.454 1476.42 150.003 1477.19 149.615C1477.39 149.519 1477.61 149.422 1477.81 149.325C1477.9 149.293 1477.97 149.261 1478.06 149.228C1478.52 149.035 1477.58 149.422 1478 149.261C1478.42 149.099 1478.84 148.938 1479.29 148.809C1479.74 148.68 1480.16 148.551 1480.61 148.454C1480.81 148.422 1481.03 148.357 1481.23 148.325C1481.42 148.293 1482.32 148.164 1481.48 148.26C1482.13 148.164 1482.74 148.067 1483.19 147.551C1483.55 147.164 1483.77 146.712 1483.87 146.164C1484.03 145.067 1483.32 143.744 1482.13 143.518C1481.19 143.325 1480.26 143.099 1479.32 142.808C1478.9 142.679 1478.52 142.518 1478.1 142.389C1477.87 142.292 1477.64 142.196 1477.42 142.131C1478.16 142.421 1477.32 142.066 1477.13 142.002C1475.42 141.195 1473.77 140.228 1472.26 139.099C1472.19 139.034 1472.1 138.97 1472.03 138.937C1471.71 138.679 1472.16 139.034 1472.19 139.066C1472.03 138.905 1471.81 138.776 1471.61 138.615C1471.22 138.292 1470.87 138.002 1470.51 137.679C1469.8 137.034 1469.1 136.356 1468.45 135.614C1467.8 134.905 1467.19 134.195 1466.58 133.453C1466.51 133.356 1466.45 133.259 1466.35 133.163C1466.39 133.195 1466.71 133.614 1466.45 133.292C1466.29 133.098 1466.16 132.905 1466 132.711C1465.71 132.324 1465.42 131.905 1465.16 131.517C1464.1 129.937 1463.16 128.259 1462.32 126.549C1462.13 126.13 1461.93 125.743 1461.74 125.323C1461.68 125.227 1461.64 125.098 1461.61 125.001C1461.45 124.646 1461.68 125.13 1461.68 125.162C1461.58 124.872 1461.45 124.614 1461.35 124.356C1461 123.485 1460.68 122.581 1460.35 121.678C1459 117.71 1458 113.613 1457.19 109.484C1456.74 107.193 1456.32 104.871 1455.97 102.548C1455.8 101.451 1455.64 100.386 1455.48 99.2896C1455.42 98.7411 1455.32 98.225 1455.26 97.6765C1455.22 97.483 1455.09 96.5797 1455.22 97.3862C1455.19 97.0959 1455.16 96.8378 1455.13 96.5474C1455.03 95.87 1454.9 95.3215 1454.42 94.8376C1454 94.4183 1453.32 94.0957 1452.71 94.1279C1452.09 94.1602 1451.42 94.3537 1451 94.8376C1450.58 95.3538 1450.19 95.999 1450.29 96.6119C1451.42 105.096 1452.71 113.678 1455.32 121.839C1457.84 129.614 1461.93 137.034 1468.35 142.228C1472 145.163 1476.19 147.422 1480.81 148.293C1481.03 146.712 1481.23 145.131 1481.45 143.55C1479.45 143.809 1477.61 144.325 1475.74 145.131C1474.1 145.841 1472.58 146.809 1471.16 147.938C1468.39 150.099 1466.1 152.906 1464.29 155.906C1462.39 159.035 1461 162.487 1460.06 166.036C1458.93 170.23 1458.29 174.552 1457.64 178.843C1456.93 183.682 1456.19 188.521 1454.71 193.199C1456.29 193.425 1457.87 193.618 1459.45 193.844C1460.06 184.295 1460.61 174.294 1457.38 165.1C1454.71 157.422 1449.45 150.228 1441.8 147.002C1436.67 144.841 1431.06 144.776 1425.58 144.841C1425.8 146.422 1426 148.002 1426.22 149.583C1434.35 148.454 1441.29 143.196 1446.03 136.744C1451.29 129.582 1453.58 120.581 1454.68 111.871C1455.32 106.806 1455.45 101.709 1455.09 96.6442C1455 95.386 1454.03 94.1602 1452.67 94.2247C1451.45 94.2569 1450.19 95.257 1450.29 96.6119Z" fill="#C7D2FE"/>
<path d="M1360.7 162.197C1361.25 164.616 1361.73 167.068 1362.15 169.52C1362.38 170.714 1362.57 171.907 1362.73 173.101C1362.83 173.714 1362.93 174.294 1362.99 174.907C1363.02 175.165 1363.06 175.456 1363.09 175.714C1363.15 176.165 1363.09 175.746 1363.09 175.682C1363.12 175.875 1363.15 176.069 1363.15 176.295C1363.8 181.166 1364.19 186.037 1364.38 190.941C1364.48 193.038 1364.48 195.102 1364.35 197.199C1364.31 197.683 1364.28 198.167 1364.22 198.651C1364.19 198.909 1364.15 199.167 1364.12 199.425C1364.09 199.683 1364.19 199.877 1364.12 199.361C1364.15 199.522 1364.06 199.715 1364.06 199.877C1363.89 200.877 1363.7 201.845 1363.41 202.812C1363.28 203.296 1363.12 203.748 1362.96 204.232C1362.89 204.425 1362.77 204.651 1362.73 204.845C1362.86 204.361 1362.86 204.587 1362.8 204.716C1362.73 204.877 1362.67 205.006 1362.6 205.167C1362.15 206.103 1361.64 206.974 1361.02 207.813C1360.86 208.006 1360.73 208.232 1360.57 208.426C1360.6 208.361 1360.89 208.006 1360.64 208.329C1360.57 208.426 1360.51 208.522 1360.41 208.587C1360.09 209.006 1359.73 209.426 1359.38 209.845C1358.7 210.619 1357.96 211.394 1357.22 212.136C1356.41 212.942 1355.57 213.684 1354.7 214.426C1354.25 214.813 1353.8 215.2 1353.31 215.555C1353.22 215.652 1353.09 215.749 1352.99 215.813C1352.93 215.845 1352.54 216.168 1352.83 215.942C1353.15 215.716 1352.7 216.039 1352.67 216.071C1352.54 216.168 1352.38 216.265 1352.25 216.394C1350.31 217.813 1348.31 219.136 1346.28 220.394C1345.41 220.943 1344.83 222.104 1345.18 223.136C1345.51 224.104 1346.44 224.975 1347.51 224.911C1349.54 224.782 1351.57 224.685 1353.64 224.782C1354.99 224.846 1356.35 224.975 1357.67 225.136C1358.41 225.201 1359.12 225.265 1359.86 225.33C1360.09 225.33 1360.31 225.362 1360.54 225.394C1360.6 225.394 1360.64 225.395 1360.7 225.427C1360.96 225.459 1360.89 225.459 1360.51 225.394C1360.57 225.427 1360.73 225.427 1360.8 225.427C1361.31 225.524 1361.83 225.62 1362.35 225.782C1362.8 225.911 1363.25 226.072 1363.67 226.233C1363.8 226.266 1363.9 226.33 1364.02 226.362C1364.35 226.491 1363.44 226.104 1363.93 226.33C1364.19 226.459 1364.41 226.556 1364.67 226.685C1365.57 227.137 1366.41 227.653 1367.22 228.233C1367.31 228.298 1367.41 228.395 1367.51 228.459C1367.86 228.717 1367.41 228.395 1367.38 228.362C1367.48 228.524 1367.83 228.717 1367.96 228.846C1368.38 229.201 1368.77 229.556 1369.15 229.911C1369.9 230.621 1370.64 231.395 1371.28 232.169C1371.61 232.556 1371.93 232.943 1372.22 233.331C1372.57 233.782 1371.9 232.879 1372.22 233.331C1372.28 233.427 1372.35 233.492 1372.41 233.589C1372.61 233.847 1372.8 234.105 1372.96 234.363C1373.57 235.234 1374.15 236.105 1374.7 237.008C1375.9 238.976 1376.99 241.041 1377.99 243.105C1378.54 244.234 1379.09 245.396 1379.61 246.525C1379.73 246.783 1379.83 247.041 1379.96 247.299C1380.03 247.428 1380.09 247.59 1380.15 247.719C1380.32 248.138 1380.15 247.751 1380.12 247.654C1380.41 248.299 1380.64 248.944 1380.9 249.59C1382.99 254.88 1384.61 260.332 1385.74 265.913C1385.96 267.107 1387.28 267.784 1388.38 267.655C1389.67 267.494 1390.35 266.494 1390.48 265.268C1391.61 255.558 1389.15 245.912 1389.74 236.169C1389.77 235.395 1389.86 234.621 1389.93 233.879C1389.96 233.685 1389.99 233.492 1389.99 233.298C1390.03 232.976 1389.9 233.976 1389.96 233.492C1389.96 233.395 1389.99 233.331 1389.99 233.234C1390.06 232.814 1390.12 232.395 1390.19 231.976C1390.48 230.33 1390.86 228.685 1391.32 227.104C1391.57 226.266 1391.83 225.427 1392.12 224.588C1392.25 224.201 1392.38 223.846 1392.54 223.491C1392.61 223.298 1392.7 223.104 1392.77 222.91C1392.93 222.556 1392.7 223.072 1392.67 223.104C1392.74 222.975 1392.77 222.846 1392.83 222.717C1393.51 221.201 1394.28 219.717 1395.22 218.33C1395.45 217.975 1395.7 217.62 1395.96 217.265C1395.99 217.2 1396.28 216.846 1395.99 217.2C1395.74 217.555 1396.03 217.168 1396.09 217.104C1396.22 216.942 1396.35 216.781 1396.51 216.62C1397.06 215.975 1397.67 215.362 1398.32 214.813C1398.48 214.652 1398.67 214.523 1398.83 214.394C1399.06 214.2 1398.38 214.716 1398.64 214.555C1398.74 214.491 1398.83 214.426 1398.93 214.329C1399.28 214.103 1399.61 213.878 1399.99 213.652C1400.35 213.458 1400.7 213.265 1401.06 213.103C1401.12 213.071 1401.51 212.91 1401.09 213.071C1400.7 213.232 1401.03 213.103 1401.12 213.071C1401.35 212.974 1401.57 212.91 1401.8 212.845C1402.77 212.523 1403.64 211.587 1403.57 210.523C1403.51 209.426 1402.87 208.555 1401.8 208.2C1397.67 206.813 1393.35 206.232 1389.19 204.909C1388.7 204.748 1388.22 204.587 1387.74 204.393C1387.64 204.361 1387.54 204.329 1387.44 204.296C1387.38 204.264 1386.96 204.038 1387.32 204.232C1387.67 204.425 1387.25 204.2 1387.19 204.167C1387.06 204.103 1386.9 204.038 1386.77 203.974C1385.83 203.554 1384.96 203.038 1384.12 202.458C1383.99 202.361 1383.86 202.264 1383.73 202.199C1383.44 202.006 1383.8 202.296 1383.86 202.296C1383.77 202.328 1383.35 201.877 1383.25 201.78C1382.83 201.393 1382.41 201.006 1382.03 200.586C1381.7 200.232 1381.38 199.844 1381.06 199.457C1380.9 199.264 1380.73 199.07 1380.57 198.877C1380.99 199.361 1380.73 199.07 1380.64 198.941C1380.54 198.812 1380.44 198.651 1380.32 198.522C1379.15 196.941 1378.19 195.264 1377.32 193.521C1377.09 193.07 1376.9 192.65 1376.7 192.199C1376.61 192.005 1376.51 191.812 1376.44 191.586C1376.38 191.489 1376.35 191.36 1376.28 191.263C1376.09 190.812 1376.48 191.715 1376.28 191.296C1375.9 190.36 1375.54 189.392 1375.19 188.457C1373.73 184.456 1372.61 180.327 1371.35 176.262C1369.61 170.778 1367.57 165.391 1364.93 160.294C1364.35 159.164 1362.67 158.745 1361.6 159.422C1360.44 160.164 1360.12 161.519 1360.73 162.745C1361.38 163.971 1361.99 165.229 1362.57 166.487C1362.83 167.068 1363.12 167.649 1363.35 168.23C1363.31 168.165 1363.15 167.746 1363.31 168.165C1363.38 168.294 1363.44 168.455 1363.51 168.584C1363.64 168.907 1363.77 169.23 1363.89 169.52C1364.8 171.778 1365.6 174.069 1366.35 176.391C1367.7 180.553 1368.86 184.779 1370.28 188.908C1371.64 192.844 1373.28 196.747 1375.64 200.199C1376.9 202.038 1378.32 203.909 1380.06 205.329C1381.93 206.909 1383.99 208.039 1386.28 208.91C1390.86 210.684 1395.83 211.2 1400.48 212.749C1400.48 211.2 1400.48 209.652 1400.48 208.071C1393.45 210.329 1389.41 217.329 1387.19 223.911C1386.03 227.298 1385.32 230.846 1384.96 234.395C1384.51 238.976 1384.83 243.622 1385.22 248.202C1385.67 253.848 1386.22 259.494 1385.57 265.139C1387.15 264.913 1388.74 264.72 1390.32 264.494C1389.28 259.429 1387.83 254.429 1386.03 249.59C1384.19 244.718 1382.03 239.912 1379.41 235.395C1377.19 231.588 1374.51 227.879 1371.09 225.072C1369.22 223.556 1367.28 222.33 1365.02 221.459C1363.02 220.652 1360.93 220.426 1358.8 220.233C1357.25 220.104 1355.73 219.91 1354.18 219.814C1351.89 219.684 1349.64 219.781 1347.35 219.91C1347.76 221.426 1348.15 222.91 1348.57 224.427C1352.38 222.072 1356.09 219.491 1359.41 216.426C1362.7 213.361 1365.77 209.845 1367.41 205.619C1368.99 201.554 1369.25 197.006 1369.15 192.65C1369.06 187.715 1368.67 182.779 1368.09 177.908C1367.41 172.165 1366.44 166.423 1365.19 160.777C1364.9 159.552 1363.41 158.713 1362.22 159.1C1361.09 159.648 1360.38 160.874 1360.7 162.197Z" fill="#C7D2FE"/>
<path d="M1487.61 227.169C1488.06 228.943 1488.42 230.717 1488.68 232.556C1488.65 232.33 1488.61 232.137 1488.58 231.911C1489.06 235.492 1489.13 239.17 1488.65 242.75C1488.68 242.525 1488.71 242.331 1488.74 242.105C1488.35 245.009 1487.61 247.848 1486.48 250.525C1486.58 250.332 1486.65 250.138 1486.74 249.944C1486.19 251.235 1485.58 252.493 1484.84 253.687C1484.48 254.3 1484.06 254.913 1483.64 255.493C1483.45 255.751 1483.26 256.009 1483.06 256.267C1483.58 255.59 1483.16 256.138 1483.03 256.3C1482.9 256.461 1482.77 256.622 1482.64 256.751C1481.74 257.848 1480.71 258.848 1479.64 259.784C1479.39 260.01 1479.1 260.235 1478.84 260.461C1478.68 260.59 1478.13 261.01 1478.81 260.494C1478.64 260.59 1478.52 260.719 1478.35 260.848C1477.74 261.3 1477.1 261.719 1476.45 262.139C1475.23 262.881 1474 263.526 1472.68 264.074C1472.87 263.978 1473.06 263.913 1473.26 263.816C1472.32 264.203 1471.39 264.591 1470.45 265.01C1469.81 265.3 1469.19 265.558 1468.71 266.042C1467.61 267.075 1467.81 268.849 1468.93 269.72C1469.51 270.172 1470.29 270.301 1470.97 270.494C1472.13 270.849 1473.29 271.268 1474.42 271.752C1474.22 271.656 1474.03 271.591 1473.84 271.494C1476.9 272.817 1479.87 274.462 1482.52 276.462C1482.58 276.527 1482.64 276.559 1482.71 276.624C1482.16 276.204 1482.39 276.398 1482.52 276.462C1482.68 276.591 1482.81 276.688 1482.97 276.817C1483.26 277.043 1483.55 277.301 1483.81 277.527C1484.29 277.979 1484.77 278.43 1485.23 278.946C1485.45 279.172 1485.64 279.43 1485.87 279.688C1485.97 279.817 1486.06 279.946 1486.16 280.075C1486.26 280.204 1486.42 280.43 1485.97 279.85C1486.03 279.946 1486.1 280.011 1486.16 280.108C1486.55 280.624 1486.94 281.172 1487.26 281.753C1488.1 283.076 1488.77 284.495 1489.42 285.947C1489.32 285.753 1489.26 285.56 1489.16 285.366C1491.48 290.915 1492.55 296.883 1493.58 302.787C1493.84 304.367 1494.13 305.948 1494.42 307.529C1494.52 308.077 1495.06 308.722 1495.52 308.981C1496 309.239 1496.52 309.335 1497.07 309.271C1498.26 309.11 1499.13 308.11 1499.16 306.884C1499.26 304.206 1499.36 301.528 1499.45 298.819C1499.55 296.238 1499.55 293.625 1499.9 291.044C1499.87 291.27 1499.84 291.463 1499.81 291.689C1500.13 289.463 1500.61 287.237 1501.19 285.076C1501.48 284.011 1501.81 282.947 1502.13 281.882C1502.42 281.011 1502.68 280.108 1503.03 279.237C1502.94 279.43 1502.87 279.624 1502.78 279.817C1503.23 278.785 1503.81 277.817 1504.48 276.914C1504.58 276.785 1504.68 276.656 1504.78 276.495C1505 276.204 1504.36 277.011 1504.71 276.559C1504.94 276.269 1505.16 276.011 1505.39 275.72C1505.81 275.204 1506.26 274.72 1506.71 274.236C1507.68 273.236 1508.71 272.268 1509.78 271.333C1510.03 271.107 1510.29 270.914 1510.55 270.688C1510.68 270.591 1510.81 270.494 1510.94 270.365C1511 270.301 1511.07 270.236 1511.16 270.204C1511.07 270.268 1510.68 270.591 1510.97 270.333C1511.49 269.946 1512.03 269.559 1512.55 269.172C1513.61 268.462 1514.71 267.784 1515.91 267.3C1515.71 267.397 1515.52 267.462 1515.32 267.559C1515.42 267.526 1515.52 267.494 1515.61 267.429C1516.2 267.204 1516.74 266.881 1517.07 266.333C1517.32 265.849 1517.42 265.333 1517.36 264.784C1517.2 263.591 1516.2 262.687 1514.97 262.687C1514.42 262.687 1513.87 262.655 1513.36 262.59C1513.58 262.623 1513.78 262.655 1514 262.687C1512.94 262.526 1511.87 262.236 1510.87 261.816C1511.07 261.913 1511.26 261.977 1511.45 262.074C1510.84 261.816 1510.26 261.526 1509.71 261.171C1509.42 261.01 1509.16 260.816 1508.87 260.655C1508.74 260.558 1508.58 260.461 1508.45 260.364C1508.39 260.332 1508.32 260.268 1508.26 260.235C1508.23 260.203 1508.19 260.171 1508.16 260.171C1507.94 259.977 1508.49 260.429 1508.45 260.397C1507.36 259.493 1506.32 258.526 1505.36 257.461C1505.13 257.171 1504.87 256.913 1504.65 256.622C1504.55 256.493 1504.42 256.332 1504.32 256.203C1504.07 255.88 1504.58 256.526 1504.48 256.396C1504.42 256.3 1504.36 256.235 1504.29 256.138C1503.81 255.525 1503.39 254.88 1502.94 254.235C1502.03 252.88 1501.23 251.461 1500.48 250.009C1499.61 248.331 1498.81 246.589 1498.07 244.847C1498.16 245.041 1498.23 245.234 1498.32 245.428C1496.16 240.299 1494.48 234.943 1493.1 229.524C1492.77 228.266 1492.48 227.04 1492.19 225.782C1491.9 224.556 1490.42 223.717 1489.23 224.104C1488 224.62 1487.29 225.846 1487.61 227.169C1488.29 230.104 1489.03 233.04 1489.9 235.944C1490.9 239.331 1492.06 242.718 1493.39 246.009C1494.81 249.461 1496.39 252.88 1498.39 256.042C1500.16 258.88 1502.29 261.655 1504.9 263.752C1506.16 264.752 1507.49 265.687 1508.97 266.333C1510.61 267.042 1512.23 267.494 1514.03 267.655C1514.39 267.688 1514.74 267.688 1515.07 267.688C1514.84 266.107 1514.65 264.526 1514.42 262.945C1511.78 263.978 1509.49 265.591 1507.29 267.365C1505.1 269.139 1503.03 271.139 1501.29 273.365C1500.42 274.462 1499.61 275.559 1498.97 276.817C1498.23 278.301 1497.74 279.914 1497.26 281.495C1496.1 285.334 1495.16 289.237 1494.87 293.238C1494.71 295.496 1494.68 297.786 1494.61 300.044C1494.55 302.367 1494.45 304.658 1494.39 306.98C1495.97 306.755 1497.55 306.561 1499.13 306.335C1497.97 299.915 1497.1 293.399 1495.03 287.205C1493.97 284.076 1492.65 280.946 1490.71 278.237C1489.74 276.849 1488.65 275.559 1487.42 274.398C1486 273.107 1484.42 271.946 1482.81 270.914C1481.03 269.752 1479.16 268.72 1477.23 267.849C1476.13 267.333 1475 266.881 1473.84 266.462C1472.9 266.139 1471.97 265.881 1471.03 265.591C1471.22 265.687 1471.42 265.752 1471.61 265.849C1471.9 266.139 1472.16 266.397 1472.45 266.687C1472.55 266.881 1472.61 267.075 1472.71 267.268C1472.74 267.494 1472.77 267.688 1472.81 267.913C1472.77 268.139 1472.74 268.333 1472.71 268.559C1472.61 268.752 1472.55 268.946 1472.45 269.139C1472.26 269.43 1472 269.784 1471.71 269.913C1471.77 269.881 1471.81 269.849 1471.87 269.817C1472.03 269.72 1472.19 269.655 1472.35 269.559C1472.81 269.333 1473.29 269.139 1473.77 268.946C1473.58 269.042 1473.39 269.107 1473.19 269.204C1474.52 268.655 1475.87 268.107 1477.16 267.429C1478.64 266.655 1480.03 265.752 1481.35 264.752C1484.16 262.59 1486.58 260.042 1488.48 257.074C1492.16 251.428 1493.77 244.589 1493.81 237.911C1493.81 233.911 1493.26 229.879 1492.29 226.007C1491.97 224.782 1490.55 223.911 1489.32 224.33C1488.03 224.62 1487.26 225.846 1487.61 227.169Z" fill="#C7D2FE"/>
<path d="M1520.29 141.583C1520.55 142.776 1520.78 143.97 1520.97 145.163C1521.07 145.744 1521.16 146.357 1521.26 146.97C1521.29 147.164 1521.45 148.067 1521.32 147.357C1521.39 147.712 1521.42 148.067 1521.45 148.389C1521.74 150.841 1521.97 153.325 1522.1 155.809C1522.36 160.81 1522.32 165.842 1521.97 170.81C1521.87 172.036 1521.78 173.262 1521.68 174.52C1521.61 175.069 1521.58 175.649 1521.52 176.198C1521.49 176.456 1521.45 176.714 1521.42 177.004C1521.42 177.133 1521.39 177.262 1521.39 177.359C1521.36 177.553 1521.39 177.456 1521.42 177.069C1521.42 177.166 1521.39 177.262 1521.39 177.359C1521.1 179.424 1520.65 181.456 1520.1 183.456C1519.81 184.456 1519.49 185.456 1519.13 186.424C1518.94 186.908 1518.78 187.392 1518.58 187.876C1518.55 188.005 1518.49 188.102 1518.45 188.231C1518.65 187.618 1518.55 187.973 1518.49 188.134C1518.36 188.392 1518.26 188.682 1518.13 188.941C1517.26 190.844 1516.26 192.65 1515.07 194.392C1514.74 194.876 1514.39 195.36 1514.03 195.812C1513.94 195.941 1513.74 196.102 1514.13 195.683C1514.03 195.812 1513.9 195.941 1513.81 196.07C1513.61 196.296 1513.45 196.522 1513.26 196.747C1512.52 197.619 1511.74 198.425 1510.9 199.232C1510.49 199.619 1510.07 200.006 1509.61 200.393C1509.39 200.586 1509.13 200.748 1508.94 200.941C1509.36 200.522 1509.19 200.748 1509.03 200.877C1508.9 200.974 1508.78 201.07 1508.61 201.167C1507.68 201.845 1506.68 202.49 1505.65 203.038C1504.74 203.522 1504.23 204.78 1504.55 205.78C1504.68 206.167 1504.87 206.555 1505.16 206.845C1505.52 207.232 1506.32 207.619 1506.87 207.555C1509.03 207.297 1511.19 207.168 1513.36 207.232C1514.42 207.264 1515.45 207.329 1516.52 207.426C1516.78 207.458 1517.07 207.49 1517.32 207.522C1517.52 207.555 1518.49 207.684 1517.65 207.555C1518.2 207.651 1518.74 207.716 1519.29 207.813C1521.39 208.168 1523.49 208.684 1525.52 209.329C1526.55 209.652 1527.58 210.006 1528.58 210.426C1528.81 210.523 1529 210.587 1529.23 210.684C1529.36 210.748 1529.49 210.781 1529.62 210.845C1528.94 210.587 1529.39 210.748 1529.55 210.813C1530.07 211.039 1530.55 211.265 1531.07 211.49C1533.04 212.426 1534.94 213.458 1536.75 214.62C1537.65 215.2 1538.52 215.781 1539.36 216.426C1539.58 216.587 1539.81 216.749 1540.04 216.91C1540.13 217.007 1540.26 217.071 1540.36 217.168C1539.84 216.781 1540.07 216.942 1540.2 217.039C1540.68 217.426 1541.13 217.781 1541.58 218.168C1543.2 219.523 1544.75 221.007 1546.16 222.556C1546.91 223.362 1547.62 224.201 1548.33 225.072C1548.46 225.265 1548.62 225.427 1548.75 225.62C1548.23 225.007 1548.84 225.749 1548.94 225.911C1549.26 226.362 1549.58 226.814 1549.91 227.266C1551.26 229.233 1552.49 231.298 1553.52 233.427C1553.78 233.976 1554.04 234.524 1554.26 235.04C1554.46 235.492 1554.04 234.492 1554.23 234.976C1554.29 235.137 1554.36 235.331 1554.42 235.492C1554.52 235.75 1554.62 236.008 1554.71 236.266C1555.17 237.428 1555.55 238.621 1555.88 239.815C1556.23 241.041 1557.62 241.912 1558.84 241.492C1559.42 241.299 1560 240.944 1560.29 240.395C1560.62 239.783 1560.65 239.202 1560.55 238.524C1560.55 238.492 1560.46 237.879 1560.52 238.266C1560.59 238.653 1560.49 238.073 1560.49 238.04C1560.46 237.815 1560.42 237.589 1560.39 237.363C1560.33 236.847 1560.26 236.331 1560.23 235.815C1560.17 235.008 1560.1 234.202 1560.07 233.395C1560.04 232.137 1560.07 230.846 1560.04 229.588C1560.04 228.008 1559.94 226.459 1559.78 224.878C1559.65 223.685 1559.49 222.491 1559.33 221.297C1559.23 220.588 1559.13 219.878 1559.04 219.136C1559 219.007 1559 218.878 1558.97 218.749C1558.88 218.136 1559.04 219.136 1558.97 218.749C1558.94 218.394 1558.88 218.071 1558.84 217.717C1558.55 215.426 1558.29 213.103 1558.23 210.781C1558.2 209.587 1558.2 208.426 1558.29 207.232C1558.33 206.684 1558.36 206.103 1558.46 205.554C1558.33 206.232 1558.52 205.232 1558.52 205.103C1558.59 204.78 1558.62 204.49 1558.68 204.167C1558.88 203.167 1559.17 202.199 1559.49 201.264C1559.62 200.845 1559.78 200.425 1559.94 200.006C1560 199.812 1560.07 199.619 1560.17 199.457C1560.2 199.328 1560.26 199.231 1560.29 199.102C1560.52 198.586 1560.2 199.361 1560.29 199.135C1561.07 197.425 1561.94 195.78 1562.97 194.231C1563.26 193.812 1563.68 193.36 1563.94 192.909C1563.91 192.941 1563.59 193.36 1563.84 193.038C1563.94 192.909 1564.04 192.812 1564.13 192.683C1564.3 192.489 1564.46 192.296 1564.62 192.102C1565.3 191.328 1566.01 190.586 1566.78 189.876C1567.17 189.521 1567.59 189.166 1568.01 188.811C1568.33 188.553 1567.91 188.908 1567.88 188.908C1568.01 188.844 1568.1 188.715 1568.23 188.65C1568.46 188.489 1568.68 188.328 1568.88 188.166C1569.75 187.553 1570.65 187.037 1571.62 186.553C1572.52 186.102 1573.04 184.779 1572.72 183.811C1572.36 182.747 1571.49 182.101 1570.39 182.037C1569.26 181.972 1568.13 181.876 1567 181.747C1566.75 181.714 1566.49 181.682 1566.23 181.65C1566.1 181.65 1565.97 181.585 1565.84 181.585C1566.49 181.553 1566.07 181.617 1565.88 181.585C1565.3 181.488 1564.71 181.424 1564.17 181.327C1561.97 180.94 1559.81 180.456 1557.71 179.843C1556.65 179.521 1555.62 179.198 1554.58 178.811C1554.1 178.617 1553.62 178.456 1553.1 178.262C1553.04 178.23 1552.36 177.972 1552.36 177.972C1552.46 178.004 1552.55 178.069 1552.65 178.101C1552.55 178.069 1552.46 178.004 1552.36 177.972C1552.23 177.908 1552.07 177.843 1551.94 177.778C1549.91 176.875 1547.97 175.843 1546.1 174.649C1545.16 174.036 1544.23 173.423 1543.36 172.746C1543.26 172.681 1543.2 172.617 1543.1 172.552C1543.65 172.939 1543.2 172.649 1543.1 172.552C1542.91 172.391 1542.68 172.23 1542.49 172.068C1542.04 171.714 1541.62 171.326 1541.2 170.939C1540.39 170.197 1539.58 169.423 1538.84 168.617C1538.07 167.778 1537.39 166.875 1536.65 166.036C1537.1 166.552 1536.55 165.907 1536.45 165.745C1536.29 165.52 1536.13 165.326 1535.97 165.1C1535.62 164.616 1535.29 164.132 1534.97 163.649C1534.33 162.681 1533.74 161.681 1533.16 160.681C1532.04 158.68 1531.03 156.616 1530.1 154.487C1530.07 154.39 1530 154.293 1529.97 154.196C1529.94 154.1 1529.87 154.003 1529.84 153.906C1529.97 154.229 1530 154.261 1529.91 154.035C1529.78 153.745 1529.65 153.422 1529.52 153.132C1529.29 152.551 1529.07 151.97 1528.84 151.39C1528.39 150.196 1527.94 148.97 1527.52 147.777C1526.65 145.293 1525.84 142.808 1525.03 140.324C1524.65 139.131 1523.32 138.228 1522.07 138.647C1520.78 139.002 1519.87 140.292 1520.29 141.583C1523.2 150.648 1526.23 160.003 1531.87 167.778C1534.74 171.746 1538.2 175.165 1542.26 177.972C1546.1 180.617 1550.39 182.618 1554.81 184.069C1559.84 185.714 1565.1 186.618 1570.39 186.908C1569.97 185.392 1569.59 183.908 1569.17 182.392C1561.84 186.037 1556.75 193.296 1554.52 201.07C1553.17 205.813 1553.23 210.748 1553.78 215.587C1553.94 216.942 1554.1 218.265 1554.29 219.62C1554.33 219.943 1554.39 220.233 1554.42 220.555C1554.46 220.685 1554.46 220.814 1554.49 220.943C1554.58 221.556 1554.42 220.555 1554.49 220.975C1554.58 221.588 1554.65 222.233 1554.75 222.846C1554.97 224.749 1555.2 226.653 1555.23 228.556C1555.26 230.008 1555.23 231.459 1555.26 232.911C1555.33 235.202 1555.58 237.492 1555.91 239.783C1557.46 239.363 1559 238.912 1560.59 238.492C1558.1 229.717 1552.94 221.781 1546.16 215.749C1539.39 209.684 1531 205.264 1522.1 203.425C1517.13 202.393 1511.97 202.07 1506.94 202.716C1507.36 204.232 1507.74 205.716 1508.16 207.232C1516.1 202.877 1521.45 195.038 1524.26 186.586C1525.71 182.198 1526.36 177.649 1526.71 173.036C1527.13 167.939 1527.26 162.842 1527.07 157.745C1526.84 151.906 1526.23 146.067 1525.03 140.357C1524.78 139.131 1523.26 138.292 1522.07 138.679C1520.68 139.034 1520.03 140.26 1520.29 141.583Z" fill="#C7D2FE"/>
<path d="M2015.9 145.524C2001.03 131.261 1981.7 121.947 1961.42 118.515C1941.02 115.084 1919.8 117.418 1900.96 126.149C1882.73 134.599 1867.34 148.815 1856.72 165.809C1851.4 174.306 1847.27 183.596 1844.56 193.26C1841.83 202.995 1840.41 213.359 1841.08 223.467C1841.78 233.878 1844.91 244.686 1852.68 252.085C1860.92 259.882 1872.11 264.574 1883.29 265.998C1894.61 267.422 1906.54 266.325 1917.11 261.913C1921.8 259.952 1926.31 257.478 1929.95 253.906C1933.2 250.731 1935.88 246.88 1937.86 242.795C1941.6 235.138 1943.77 225.171 1939.19 217.374C1936.84 213.359 1932.78 210.324 1928.92 207.827C1924.44 204.932 1919.52 202.574 1914.43 201.034C1909.41 199.516 1903.99 199.096 1898.79 198.769C1893 198.419 1887.21 198.466 1881.42 198.886C1869.87 199.75 1858.4 202.061 1847.43 205.819C1836.72 209.484 1826.12 214.409 1816.88 220.992C1807.96 227.318 1800.49 235.395 1794.44 244.475C1780.97 264.667 1775.35 288.734 1772.64 312.544C1771.94 318.707 1771.43 324.869 1771.01 331.055C1770.91 332.316 1772.15 333.39 1773.34 333.39C1774.67 333.39 1775.58 332.316 1775.68 331.055C1777.31 307.315 1780.23 282.922 1790.43 261.142C1794.79 251.829 1800.37 243.051 1807.38 235.512C1814.57 227.785 1823.11 221.926 1832.49 217.164C1852.1 207.196 1874.42 202.388 1896.38 203.321C1901.43 203.531 1906.68 203.835 1911.58 205.095C1916.25 206.309 1920.71 208.34 1924.84 210.791C1928.43 212.939 1932.57 215.717 1934.81 219.171C1936.79 222.206 1937.28 225.731 1937.02 229.396C1936.42 237.426 1932.01 245.643 1926.12 251.128C1922.76 254.28 1918.37 256.521 1914.03 258.155C1908.94 260.069 1903.57 261.236 1898.18 261.679C1887.51 262.566 1876.61 261.119 1866.97 256.287C1862.33 253.976 1857.84 250.988 1854.37 247.113C1851.24 243.612 1849.11 239.317 1847.76 234.835C1844.96 225.521 1845.14 215.39 1846.62 205.842C1848.06 196.458 1850.91 187.261 1855.02 178.671C1863.17 161.584 1875.98 146.691 1891.95 136.466C1908.38 125.939 1927.71 121.013 1947.18 121.737C1966.58 122.46 1985.74 128.74 2001.66 139.851C2005.54 142.559 2009.18 145.57 2012.59 148.838C2014.78 150.892 2018.07 147.601 2015.9 145.524Z" fill="#C7D2FE"/>
<path d="M1754.64 320.644C1754.95 320.738 1755.23 320.854 1755.53 320.971C1755.34 320.901 1755.16 320.808 1754.97 320.738C1756.91 321.578 1758.63 322.839 1760.34 324.052C1762.14 325.313 1763.91 326.597 1765.68 327.904C1766.69 328.651 1767.69 329.421 1768.7 330.192C1768.53 330.075 1768.39 329.958 1768.23 329.818C1769.4 330.705 1770.52 331.662 1771.71 332.526C1773.15 333.6 1775.16 333.763 1776.68 332.713C1777.75 331.966 1778.62 330.939 1779.57 330.028C1780.44 329.188 1781.32 328.371 1782.23 327.601C1783.26 326.714 1784.31 325.85 1785.36 325.033C1785.2 325.15 1785.06 325.266 1784.9 325.406C1787.79 323.165 1790.85 321.181 1794.07 319.43C1794.98 318.94 1795.91 318.45 1796.87 317.983C1797.38 317.75 1797.8 317.12 1797.94 316.583C1798.11 316.022 1798.04 315.275 1797.71 314.785C1797.38 314.295 1796.92 313.851 1796.31 313.711C1795.68 313.571 1795.1 313.665 1794.51 313.945C1788.49 316.886 1782.91 320.691 1777.96 325.173C1777.29 325.78 1776.63 326.41 1775.98 327.04C1775.35 327.671 1774.74 328.371 1774.04 328.931C1774.2 328.814 1774.34 328.698 1774.51 328.558C1774.32 328.698 1774.13 328.814 1773.9 328.931C1774.09 328.861 1774.27 328.768 1774.46 328.698C1774.3 328.768 1774.13 328.814 1773.97 328.838C1774.18 328.814 1774.39 328.791 1774.6 328.744C1774.46 328.768 1774.3 328.768 1774.16 328.744C1774.37 328.768 1774.58 328.791 1774.79 328.838C1774.62 328.814 1774.48 328.768 1774.34 328.721C1774.53 328.791 1774.72 328.884 1774.91 328.955C1774.58 328.814 1774.3 328.628 1774.02 328.418C1774.18 328.534 1774.32 328.651 1774.48 328.791C1769.89 325.22 1765.31 321.625 1760.46 318.427C1759.06 317.493 1757.58 316.699 1755.97 316.162C1755.41 315.976 1754.67 316.116 1754.18 316.396C1753.69 316.676 1753.22 317.236 1753.1 317.796C1752.73 319.057 1753.41 320.224 1754.64 320.644Z" fill="#C7D2FE"/>
<path d="M1256.37 836.337H1000.87C990.968 836.337 982.903 828.305 982.903 818.369V716.426C982.903 635.97 1048.13 570.74 1128.59 570.74C1209.05 570.74 1274.28 635.97 1274.28 716.426V818.369C1274.31 828.305 1266.28 836.337 1256.37 836.337Z" fill="#C7D2FE"/>
<path d="M1244.76 827.627H989.258C979.354 827.627 971.289 819.594 971.289 809.658V707.716C971.289 627.259 1036.52 562.029 1116.98 562.029C1197.43 562.029 1262.66 627.259 1262.66 707.716V809.658C1262.69 819.594 1254.66 827.627 1244.76 827.627Z" fill="#C7D2FE"/>
<path d="M223.111 363.339C131.912 363.339 57.9715 289.399 57.9715 198.199V36.35C57.9715 -54.8495 131.912 -128.79 223.111 -128.79C314.311 -128.79 388.251 -54.8495 388.251 36.35V198.199C388.251 289.399 314.311 363.339 223.111 363.339Z" fill="#C7D2FE"/>
<path d="M239.854 340.757C148.655 340.757 74.7145 266.817 74.7145 175.617V13.7679C74.7145 -77.4316 148.655 -151.372 239.854 -151.372C331.054 -151.372 404.994 -77.4316 404.994 13.7679V175.617C404.994 266.817 331.054 340.757 239.854 340.757Z" fill="#C7D2FE" stroke="#1A243D" stroke-width="2.90341" stroke-miterlimit="10" stroke-linecap="round"/>
<path d="M516.552 64.6934C533.19 42.7659 527.224 8.78297 551.335 -8.25465C560.899 -15.0205 572.77 -18.1574 584.426 -17.4501C596.973 -16.6812 607.983 -11.1148 616.287 -1.7656C626.497 9.70557 632.832 24.2829 644.919 34.1241C650.639 38.7679 657.281 42.1816 664.693 42.8582C671.982 43.504 679.209 41.1975 685.452 37.507C698.615 29.7571 707.164 16.8405 718.359 6.81472C723.71 2.01712 729.799 -2.04239 736.811 -3.82611C745.022 -5.91737 753.603 -4.53344 761.537 -1.95012C769.718 0.725465 777.406 4.6927 785.002 8.6907C792.506 12.6272 799.918 16.7482 807.176 21.0845C821.937 29.8493 836.207 39.383 849.923 49.6855C853.337 52.2381 856.72 54.8522 860.072 57.5278C862.133 59.1577 865.085 56.2669 862.994 54.6062C849.339 43.7808 835.1 33.6321 820.369 24.3444C805.669 15.0567 790.415 6.23039 774.607 -1.08902C766.857 -4.68721 758.769 -7.67033 750.22 -8.65445C742.224 -9.54631 734.258 -8.19315 727.123 -4.47194C713.622 2.53994 705.073 15.6718 694.125 25.7591C688.558 30.895 682.192 35.6003 674.811 37.7531C667.584 39.8443 660.142 38.8294 653.591 35.2005C639.721 27.512 632.617 12.6579 623.329 0.510187C618.962 -5.21002 614.011 -10.4997 607.86 -14.3132C602.816 -17.4193 597.158 -19.5721 591.345 -20.6484C579.444 -22.8935 566.896 -21.1713 556.04 -15.8509C550.72 -13.2368 545.799 -9.70009 541.739 -5.39455C537.096 -0.443184 533.836 5.46155 531.345 11.7353C525.963 25.3593 524.64 40.3671 518.336 53.6528C516.829 56.8204 515.014 59.8651 512.892 62.6637C511.385 64.7242 514.984 66.7847 516.552 64.6934Z" fill="#C7D2FE"/>
<path d="M535.189 75.4572C538.45 75.4572 541.094 72.8136 541.094 69.5525C541.094 66.2914 538.45 63.6478 535.189 63.6478C531.928 63.6478 529.284 66.2914 529.284 69.5525C529.284 72.8136 531.928 75.4572 535.189 75.4572Z" fill="#C7D2FE"/>
<path d="M538.233 52.7609C541.494 52.7609 544.138 50.1173 544.138 46.8562C544.138 43.5951 541.494 40.9515 538.233 40.9515C534.972 40.9515 532.329 43.5951 532.329 46.8562C532.329 50.1173 534.972 52.7609 538.233 52.7609Z" fill="#C7D2FE"/>
<path d="M544.138 31.1103C547.399 31.1103 550.043 28.4666 550.043 25.2055C550.043 21.9444 547.399 19.3008 544.138 19.3008C540.877 19.3008 538.233 21.9444 538.233 25.2055C538.233 28.4666 540.877 31.1103 544.138 31.1103Z" fill="#C7D2FE"/>
<path d="M555.948 13.2115C559.209 13.2115 561.852 10.5679 561.852 7.30681C561.852 4.04571 559.209 1.40207 555.948 1.40207C552.687 1.40207 550.043 4.04571 550.043 7.30681C550.043 10.5679 552.687 13.2115 555.948 13.2115Z" fill="#C7D2FE"/>
<path d="M573.969 1.40205C577.23 1.40205 579.874 -1.24158 579.874 -4.50267C579.874 -7.76377 577.23 -10.4074 573.969 -10.4074C570.708 -10.4074 568.065 -7.76377 568.065 -4.50267C568.065 -1.24158 570.708 1.40205 573.969 1.40205Z" fill="#C7D2FE"/>
<path d="M597.096 7.3068C600.357 7.3068 603.001 4.66316 603.001 1.40206C603.001 -1.85903 600.357 -4.50266 597.096 -4.50266C593.835 -4.50266 591.192 -1.85903 591.192 1.40206C591.192 4.66316 593.835 7.3068 597.096 7.3068Z" fill="#C7D2FE"/>
<path d="M611.889 25.1748C615.15 25.1748 617.794 22.5311 617.794 19.27C617.794 16.0089 615.15 13.3653 611.889 13.3653C608.628 13.3653 605.984 16.0089 605.984 19.27C605.984 22.5311 608.628 25.1748 611.889 25.1748Z" fill="#C7D2FE"/>
<path d="M623.698 40.9515C626.959 40.9515 629.603 38.3078 629.603 35.0467C629.603 31.7856 626.959 29.142 623.698 29.142C620.437 29.142 617.794 31.7856 617.794 35.0467C617.794 38.3078 620.437 40.9515 623.698 40.9515Z" fill="#C7D2FE"/>
<path d="M642.55 55.6518C645.812 55.6518 648.455 53.0081 648.455 49.7471C648.455 46.486 645.812 43.8423 642.55 43.8423C639.289 43.8423 636.646 46.486 636.646 49.7471C636.646 53.0081 639.289 55.6518 642.55 55.6518Z" fill="#C7D2FE"/>
<path d="M665.616 64.3551C668.877 64.3551 671.521 61.7115 671.521 58.4504C671.521 55.1893 668.877 52.5457 665.616 52.5457C662.355 52.5457 659.711 55.1893 659.711 58.4504C659.711 61.7115 662.355 64.3551 665.616 64.3551Z" fill="#C7D2FE"/>
<path d="M688.804 58.4504C692.065 58.4504 694.709 55.8068 694.709 52.5457C694.709 49.2846 692.065 46.6409 688.804 46.6409C685.543 46.6409 682.899 49.2846 682.899 52.5457C682.899 55.8068 685.543 58.4504 688.804 58.4504Z" fill="#C7D2FE"/>
<path d="M709.747 40.9515C713.008 40.9515 715.652 38.3078 715.652 35.0467C715.652 31.7856 713.008 29.142 709.747 29.142C706.486 29.142 703.843 31.7856 703.843 35.0467C703.843 38.3078 706.486 40.9515 709.747 40.9515Z" fill="#C7D2FE"/>
<path d="M730.722 22.0071C733.983 22.0071 736.626 19.3635 736.626 16.1024C736.626 12.8413 733.983 10.1977 730.722 10.1977C727.461 10.1977 724.817 12.8413 724.817 16.1024C724.817 19.3635 727.461 22.0071 730.722 22.0071Z" fill="#C7D2FE"/>
<path d="M752.188 13.2115C755.449 13.2115 758.093 10.5679 758.093 7.30681C758.093 4.04571 755.449 1.40207 752.188 1.40207C748.927 1.40207 746.283 4.04571 746.283 7.30681C746.283 10.5679 748.927 13.2115 752.188 13.2115Z" fill="#C7D2FE"/>
<path d="M772.916 22.0071C776.177 22.0071 778.821 19.3635 778.821 16.1024C778.821 12.8413 776.177 10.1977 772.916 10.1977C769.655 10.1977 767.011 12.8413 767.011 16.1024C767.011 19.3635 769.655 22.0071 772.916 22.0071Z" fill="#C7D2FE"/>
<path d="M791.399 31.1103C794.66 31.1103 797.304 28.4666 797.304 25.2055C797.304 21.9444 794.66 19.3008 791.399 19.3008C788.138 19.3008 785.494 21.9444 785.494 25.2055C785.494 28.4666 788.138 31.1103 791.399 31.1103Z" fill="#C7D2FE"/>
<path d="M810.805 42.9197C814.066 42.9197 816.709 40.2761 816.709 37.015C816.709 33.7539 814.066 31.1103 810.805 31.1103C807.544 31.1103 804.9 33.7539 804.9 37.015C804.9 40.2761 807.544 42.9197 810.805 42.9197Z" fill="#C7D2FE"/>
<path d="M830.948 55.6518C834.209 55.6518 836.853 53.0081 836.853 49.7471C836.853 46.486 834.209 43.8423 830.948 43.8423C827.687 43.8423 825.044 46.486 825.044 49.7471C825.044 53.0081 827.687 55.6518 830.948 55.6518Z" fill="#C7D2FE"/>
<path d="M847.648 69.5525C850.909 69.5525 853.552 66.9089 853.552 63.6478C853.552 60.3867 850.909 57.7431 847.648 57.7431C844.387 57.7431 841.743 60.3867 841.743 63.6478C841.743 66.9089 844.387 69.5525 847.648 69.5525Z" fill="#C7D2FE"/>
<path d="M1037.65 959.668H1029.58V1126.45H1037.65V959.668Z" fill="#C7D2FE"/>
<path d="M977.485 981.236L971.782 986.939L1089.72 1104.87L1095.42 1099.17L977.485 981.236Z" fill="#C7D2FE"/>
<path d="M1089.72 981.235L971.782 1099.17L977.485 1104.87L1095.42 986.938L1089.72 981.235Z" fill="#C7D2FE"/>
<path d="M1061.37 964.344L998.443 1118.8L1005.91 1121.85L1068.84 967.387L1061.37 964.344Z" fill="#C7D2FE"/>
<path d="M1006.17 964.252L998.69 967.263L1060.95 1121.99L1068.43 1118.98L1006.17 964.252Z" fill="#C7D2FE"/>
<path d="M233.306 529.866H159.785V456.377H81.9408V529.866H8.41992V607.742H81.9408V681.231H159.785V607.742H233.306V529.866Z" fill="#C7D2FE" stroke="#19223F" stroke-width="3.54862" stroke-miterlimit="10"/>
<path d="M257.855 516.284H184.335V442.796H106.491V516.284H32.9699V594.16H106.491V667.649H184.335V594.16H257.855V516.284Z" fill="#C7D2FE"/>
<path d="M831.764 549.093V612.484" stroke="#19223F" stroke-width="8.38764" stroke-miterlimit="10" stroke-linecap="round"/>
<path d="M863.443 580.805H800.084" stroke="#19223F" stroke-width="8.38764" stroke-miterlimit="10" stroke-linecap="round"/>
<path d="M870.411 764.752C834.215 764.752 804.859 735.395 804.859 699.199Z" fill="#C7D2FE"/>
<path d="M870.411 764.752C834.215 764.752 804.859 735.395 804.859 699.199" stroke="#C7D2FE" stroke-width="43.8738" stroke-miterlimit="10"/>
<path d="M825 153.126L874.407 190L889.221 125.794L942.048 165.233L956.862 101L1009 140.715" fill="#C7D2FE"/>
<path d="M825 153.126L874.407 190L889.221 125.794L942.048 165.233L956.862 101L1009 140.715" stroke="#19223F" stroke-width="24.8403" stroke-miterlimit="10"/>
<path d="M817 142.114L866.407 179L881.221 114.774L934.048 154.226L948.862 90L1001 129.7" fill="#C7D2FE"/>
<path d="M817 142.114L866.407 179L881.221 114.774L934.048 154.226L948.862 90L1001 129.7" stroke="#C7D2FE" stroke-width="24.8403" stroke-miterlimit="10"/>
<path d="M1167.88 343.57L1166.34 426.752L1095.07 383.798L1167.88 343.57Z" fill="#C7D2FE"/>
<path d="M1153.08 385.319L1199.93 355.653" stroke="#19223F" stroke-width="12.9041" stroke-miterlimit="10" stroke-linecap="round"/>
<path d="M1003.71 878.211H875.637H831.764V922.085V1050.16H875.637V922.085H1003.71V878.211Z" fill="#C7D2FE" stroke="#231F20" stroke-width="4.51642" stroke-miterlimit="10"/>
<path d="M1381.93 1177C1378.96 1177 1375.96 1176.88 1372.96 1176.59C1347.38 1174.23 1324.28 1162.04 1307.86 1142.29C1291.44 1122.55 1283.73 1097.58 1286.08 1072.03C1288.31 1048.03 1299.34 1025.87 1317.21 1009.7C1334.96 993.606 1357.86 984.766 1381.7 984.766C1384.67 984.766 1387.67 984.895 1390.67 985.186C1416.25 987.541 1439.35 999.735 1455.77 1019.48C1472.19 1039.22 1479.9 1064.19 1477.55 1089.77C1475.32 1113.77 1464.29 1135.94 1446.42 1152.1C1428.67 1168.13 1405.77 1177 1381.93 1177ZM1381.7 1000.86C1340.18 1000.86 1305.99 1032.09 1302.15 1073.51C1298.08 1117.45 1330.51 1156.49 1374.44 1160.55C1376.93 1160.78 1379.44 1160.91 1381.93 1160.91C1423.45 1160.91 1457.64 1129.68 1461.48 1088.26C1465.55 1044.32 1433.13 1005.28 1389.19 1001.22C1386.7 1000.96 1384.19 1000.86 1381.7 1000.86Z" fill="#C7D2FE"/>
<path d="M1381.9 1205.91C1380.44 1205.91 1378.96 1205.88 1377.48 1205.85C1360.6 1205.26 1344.35 1201.39 1329.15 1194.33C1314.47 1187.52 1301.44 1178.04 1290.34 1166.17C1279.24 1154.29 1270.73 1140.62 1264.95 1125.52C1258.95 1109.87 1256.24 1093.39 1256.82 1076.51C1257.95 1043.9 1271.5 1013.48 1295.02 990.831C1318.44 968.249 1349.25 955.797 1381.73 955.797C1383.19 955.797 1384.67 955.829 1386.15 955.861C1403.03 956.442 1419.29 960.313 1434.48 967.378C1449.16 974.185 1462.19 983.67 1473.29 995.541C1484.39 1007.41 1492.9 1021.09 1498.68 1036.19C1504.68 1051.84 1507.39 1068.32 1506.81 1085.19C1505.68 1117.81 1492.13 1148.23 1468.61 1170.88C1445.19 1193.49 1414.38 1205.91 1381.9 1205.91ZM1381.73 971.927C1322.76 971.927 1274.99 1018.12 1272.95 1077.09C1270.86 1137.13 1318.02 1187.65 1378.03 1189.75C1379.32 1189.78 1380.61 1189.81 1381.86 1189.81C1440.84 1189.81 1488.61 1143.62 1490.65 1084.64C1492.74 1024.61 1445.58 974.088 1385.57 971.991C1384.32 971.959 1383.03 971.927 1381.73 971.927Z" fill="#C7D2FE"/>
<path d="M1381.83 1235.07C1361.02 1235.07 1340.83 1231.01 1321.8 1222.94C1303.44 1215.17 1286.95 1204.07 1272.79 1189.91C1258.63 1175.75 1247.5 1159.26 1239.76 1140.91C1231.73 1121.87 1227.63 1101.68 1227.63 1080.87C1227.63 1060.06 1231.69 1039.87 1239.76 1020.83C1247.53 1002.48 1258.63 985.992 1272.79 971.83C1286.95 957.668 1303.44 946.538 1321.8 938.796C1340.83 930.763 1361.02 926.666 1381.83 926.666C1402.64 926.666 1422.83 930.731 1441.87 938.796C1460.22 946.57 1476.71 957.668 1490.87 971.83C1505.03 985.992 1516.16 1002.48 1523.91 1020.83C1531.94 1039.87 1536.04 1060.06 1536.04 1080.87C1536.04 1101.68 1531.97 1121.87 1523.91 1140.91C1516.13 1159.26 1505.03 1175.75 1490.87 1189.91C1476.71 1204.07 1460.22 1215.2 1441.87 1222.94C1422.83 1231.01 1402.64 1235.07 1381.83 1235.07ZM1381.83 942.764C1305.7 942.764 1243.76 1004.7 1243.76 1080.84C1243.76 1156.97 1305.7 1218.91 1381.83 1218.91C1457.97 1218.91 1519.91 1156.97 1519.91 1080.84C1519.91 1004.74 1457.97 942.764 1381.83 942.764Z" fill="#C7D2FE"/>
<path d="M1929.51 441.376C1906.12 441.376 1885.93 479.088 1876.57 533.608C1866.02 505.316 1851.6 487.863 1835.7 487.863C1812.31 487.863 1792.12 525.575 1782.76 580.095C1772.21 551.803 1757.79 534.35 1741.89 534.35C1718.5 534.35 1698.3 572.062 1688.95 626.582C1678.4 598.29 1663.98 580.837 1648.07 580.837C1624.69 580.837 1604.49 618.549 1595.14 673.069C1584.59 644.777 1570.17 627.324 1554.26 627.324C1530.87 627.324 1510.68 665.036 1501.32 719.556C1490.77 691.263 1476.35 673.811 1460.45 673.811C1428.16 673.811 1401.96 745.654 1401.96 834.305C1401.96 922.956 1428.16 994.799 1460.45 994.799C1483.84 994.799 1504.03 957.087 1513.39 902.567C1523.94 930.86 1538.36 948.312 1554.26 948.312C1577.65 948.312 1597.85 910.6 1607.2 856.081C1617.75 884.373 1632.17 901.825 1648.07 901.825C1671.46 901.825 1691.66 864.113 1701.01 809.594C1711.56 837.886 1725.98 855.339 1741.89 855.339C1765.28 855.339 1785.47 817.626 1794.83 763.107C1805.38 791.399 1819.8 808.852 1835.7 808.852C1859.09 808.852 1879.28 771.14 1888.64 716.62C1899.19 744.912 1913.61 762.365 1929.51 762.365C1961.8 762.365 1988 690.521 1988 601.871C1988 513.22 1961.84 441.376 1929.51 441.376Z" fill="#C7D2FE"/>
<path d="M409.188 647.551C366.959 647.551 332.764 681.779 332.764 723.975H485.644C485.644 681.779 451.416 647.551 409.188 647.551Z" fill="#C7D2FE"/>
<path d="M400.413 638.421C358.185 638.421 323.989 672.649 323.989 714.846H476.87C476.837 672.649 442.609 638.421 400.413 638.421Z" fill="#C7D2FE"/>
<path d="M1383.2 605.594C1390.29 602.266 1392.19 591.33 1387.42 581.167C1382.66 571.004 1373.04 565.463 1365.94 568.791C1358.84 572.119 1356.95 583.055 1361.72 593.218C1366.48 603.381 1376.1 608.922 1383.2 605.594Z" fill="#C7D2FE"/>
<path d="M1369.48 567.223L1582.23 467.475C1589.14 464.249 1597.33 467.217 1600.56 474.088L1606.1 485.96C1609.33 492.863 1606.36 501.058 1599.49 504.284L1386.74 604.032" fill="#C7D2FE"/>
<path d="M1369.48 567.223L1582.23 467.475C1589.14 464.249 1597.33 467.217 1600.56 474.088L1606.1 485.96C1609.33 492.863 1606.36 501.058 1599.49 504.284L1386.74 604.032" stroke="#19223F" stroke-width="5.80683" stroke-miterlimit="10" stroke-linecap="round"/>
<path d="M1383.2 605.594C1390.29 602.266 1392.19 591.33 1387.42 581.167C1382.66 571.004 1373.04 565.463 1365.94 568.791C1358.84 572.119 1356.95 583.055 1361.72 593.218C1366.48 603.381 1376.1 608.922 1383.2 605.594Z" fill="#C7D2FE" stroke="#19223F" stroke-width="5.80683" stroke-miterlimit="10" stroke-linecap="round"/>
<path d="M409.188 647.551C366.959 647.551 332.764 681.779 332.764 723.975H485.644C485.644 681.779 451.416 647.551 409.188 647.551Z" fill="#C7D2FE"/>
<path d="M374.605 994.735H351.668" stroke="#19223F" stroke-width="10.3232" stroke-miterlimit="10" stroke-linecap="round"/>
<path d="M449.126 994.735H426.221" stroke="#19223F" stroke-width="10.3232" stroke-miterlimit="10" stroke-linecap="round"/>
<path d="M434.867 960.281L418.64 976.475" stroke="#19223F" stroke-width="10.3232" stroke-miterlimit="10" stroke-linecap="round"/>
<path d="M400.413 945.99V968.927" stroke="#19223F" stroke-width="10.3232" stroke-miterlimit="10" stroke-linecap="round"/>
<path d="M365.959 960.281L382.154 976.475" stroke="#19223F" stroke-width="10.3232" stroke-miterlimit="10" stroke-linecap="round"/>
<path d="M488.806 213.587V229.524" stroke="#19223F" stroke-width="4.51642" stroke-miterlimit="10" stroke-linecap="round"/>
<path d="M496.774 221.556H480.838" stroke="#19223F" stroke-width="4.51642" stroke-miterlimit="10" stroke-linecap="round"/>
<path d="M513.033 189.36V205.296" stroke="#19223F" stroke-width="4.51642" stroke-miterlimit="10" stroke-linecap="round"/>
<path d="M521.001 197.328H505.065" stroke="#19223F" stroke-width="4.51642" stroke-miterlimit="10" stroke-linecap="round"/>
<path d="M537.228 165.165V181.069" stroke="#19223F" stroke-width="4.51642" stroke-miterlimit="10" stroke-linecap="round"/>
<path d="M545.197 173.101H529.292" stroke="#19223F" stroke-width="4.51642" stroke-miterlimit="10" stroke-linecap="round"/>
<path d="M561.456 140.937V156.874" stroke="#19223F" stroke-width="4.51642" stroke-miterlimit="10" stroke-linecap="round"/>
<path d="M569.424 148.906H553.488" stroke="#19223F" stroke-width="4.51642" stroke-miterlimit="10" stroke-linecap="round"/>
<path d="M1177.33 105.903L1188.4 23.4459L1254.27 74.2879L1177.33 105.903Z" fill="#C7D2FE"/>
<path d="M1201.56 46.8668C1210.59 42.3503 1220.92 40.4147 1230.92 41.0599C1240.6 41.7051 1249.31 46.5442 1258.02 50.4154C1271.57 54.2866 1286.08 53.3188 1298.66 46.8668" fill="#C7D2FE"/>
<path d="M1201.56 46.8668C1210.59 42.3503 1220.92 40.4147 1230.92 41.0599C1240.6 41.7051 1249.31 46.5442 1258.02 50.4154C1271.57 54.2866 1286.08 53.3188 1298.66 46.8668" stroke="#19223F" stroke-width="4.83902" stroke-miterlimit="10" stroke-linecap="round"/>
<path d="M1201.56 60.416C1210.27 56.5448 1219.63 53.964 1229.31 54.6092C1238.66 55.2544 1247.05 58.803 1255.11 62.9969C1269.31 68.1585 1285.44 67.1907 1298.66 60.416" fill="#C7D2FE"/>
<path d="M1201.56 60.416C1210.27 56.5448 1219.63 53.964 1229.31 54.6092C1238.66 55.2544 1247.05 58.803 1255.11 62.9969C1269.31 68.1585 1285.44 67.1907 1298.66 60.416" stroke="#19223F" stroke-width="4.83902" stroke-miterlimit="10" stroke-linecap="round"/>
<path d="M1201.56 74.2879C1211.56 69.1263 1222.85 67.1907 1234.14 68.8037C1242.53 70.0941 1249.31 73.9653 1256.73 77.1913C1270.28 82.353 1285.76 80.4173 1298.66 74.2879" fill="#C7D2FE"/>
<path d="M1201.56 74.2879C1211.56 69.1263 1222.85 67.1907 1234.14 68.8037C1242.53 70.0941 1249.31 73.9653 1256.73 77.1913C1270.28 82.353 1285.76 80.4173 1298.66 74.2879" stroke="#19223F" stroke-width="4.83902" stroke-miterlimit="10" stroke-linecap="round"/>
</svg>
